G04 #@! TF.GenerationSoftware,KiCad,Pcbnew,7.0.1*
G04 #@! TF.CreationDate,2023-05-15T13:30:28+02:00*
G04 #@! TF.ProjectId,flagfabber,666c6167-6661-4626-9265-722e6b696361,rev?*
G04 #@! TF.SameCoordinates,Original*
G04 #@! TF.FileFunction,Profile,NP*
%FSLAX46Y46*%
G04 Gerber Fmt 4.6, Leading zero omitted, Abs format (unit mm)*
G04 Created by KiCad (PCBNEW 7.0.1) date 2023-05-15 13:30:28*
%MOMM*%
%LPD*%
G01*
G04 APERTURE LIST*
G04 #@! TA.AperFunction,Profile*
%ADD10C,0.250000*%
G04 #@! TD*
%ADD11C,0.250000*%
G04 APERTURE END LIST*
D10*
X97505054Y-175710040D02*
X95819973Y-179290763D01*
X80917700Y-223959859D02*
X81054876Y-223413299D01*
X158432474Y-223959859D02*
X80917700Y-223959859D01*
X235947249Y-223959859D02*
X158432474Y-223959859D01*
X235947249Y-173516868D02*
X235947249Y-223959859D01*
D11*
X235561875Y-123073877D02*
X235711807Y-123362194D01*
X235758739Y-123775918D01*
X235779668Y-124080258D01*
X235798989Y-124460762D01*
X235816768Y-124925814D01*
X235833068Y-125483798D01*
X235847953Y-126143099D01*
X235861488Y-126912100D01*
X235873737Y-127799184D01*
X235884763Y-128812737D01*
X235894631Y-129961142D01*
X235903405Y-131252784D01*
X235911148Y-132696045D01*
X235917925Y-134299311D01*
X235923800Y-136070965D01*
X235928837Y-138019391D01*
X235933100Y-140152973D01*
X235936653Y-142480095D01*
X235939560Y-145009142D01*
X235941885Y-147748497D01*
X235943692Y-150706544D01*
X235945046Y-153891667D01*
X235946010Y-157312251D01*
X235946648Y-160976678D01*
X235947024Y-164893335D01*
X235947203Y-169070603D01*
X235947249Y-173516868D01*
X234786267Y-122642674D02*
X234993212Y-122829188D01*
X235227708Y-122975092D01*
X235476496Y-123065076D01*
X235561875Y-123073877D01*
X233030686Y-121243045D02*
X233242411Y-121395007D01*
X233453160Y-121549673D01*
X233659893Y-121704622D01*
X233859574Y-121857431D01*
X234109593Y-122053661D01*
X234334473Y-122236041D01*
X234527012Y-122398830D01*
X234739431Y-122593724D01*
X234786267Y-122642674D01*
X229263292Y-118095306D02*
X229515066Y-118322331D01*
X229773679Y-118552849D01*
X230037200Y-118785246D01*
X230303696Y-119017907D01*
X230571236Y-119249219D01*
X230837889Y-119477567D01*
X231101724Y-119701339D01*
X231360808Y-119918921D01*
X231613210Y-120128697D01*
X231856999Y-120329055D01*
X232090243Y-120518382D01*
X232311010Y-120695062D01*
X232517370Y-120857482D01*
X232795669Y-121070844D01*
X233030686Y-121243045D01*
D10*
X225105834Y-114104831D02*
G75*
G03*
X229263292Y-118095306I929690866J964433356D01*
G01*
D11*
X220713961Y-108215801D02*
X220581629Y-108475545D01*
X220471651Y-108707265D01*
X220363110Y-109022660D01*
X220342181Y-109327355D01*
X220431251Y-109652760D01*
X220562797Y-109896715D01*
X220759816Y-110173143D01*
X221028942Y-110491351D01*
X221376806Y-110860647D01*
X221582339Y-111067361D01*
X221810044Y-111290337D01*
X222060751Y-111530738D01*
X222335289Y-111789729D01*
X222634487Y-112068471D01*
X222959174Y-112368129D01*
X223310179Y-112689867D01*
X223688332Y-113034847D01*
X224094462Y-113404232D01*
X224529398Y-113799187D01*
X224993970Y-114220875D01*
D10*
X220713963Y-108215802D02*
G75*
G03*
X222104062Y-105110741I-59004487J28279303D01*
G01*
D11*
X228628671Y-83910064D02*
X228515328Y-84526321D01*
X228395798Y-85146684D01*
X228270116Y-85771039D01*
X228138316Y-86399276D01*
X228000433Y-87031282D01*
X227856501Y-87666945D01*
X227706555Y-88306152D01*
X227550628Y-88948793D01*
X227388756Y-89594754D01*
X227220973Y-90243924D01*
X227047314Y-90896191D01*
X226867813Y-91551443D01*
X226682504Y-92209567D01*
X226491422Y-92870452D01*
X226294601Y-93533986D01*
X226092077Y-94200056D01*
X225883882Y-94868551D01*
X225670053Y-95539358D01*
X225450623Y-96212366D01*
X225225627Y-96887463D01*
X224995099Y-97564536D01*
X224759074Y-98243473D01*
X224517586Y-98924163D01*
X224270670Y-99606493D01*
X224018360Y-100290351D01*
X223760691Y-100975625D01*
X223497697Y-101662204D01*
X223229413Y-102349975D01*
X222955873Y-103038826D01*
X222677112Y-103728646D01*
X222393163Y-104419321D01*
X222104063Y-105110741D01*
D10*
X229188780Y-80881396D02*
G75*
G03*
X228628672Y-83910064I195063396J-37640303D01*
G01*
X229188781Y-80881396D02*
G75*
G03*
X230099060Y-75137370I-114504305J21090097D01*
G01*
D11*
X231146762Y-59889592D02*
X231144949Y-60299097D01*
X231140844Y-60717254D01*
X231134476Y-61143630D01*
X231125874Y-61577791D01*
X231115068Y-62019306D01*
X231102089Y-62467741D01*
X231086966Y-62922663D01*
X231069728Y-63383639D01*
X231050405Y-63850235D01*
X231029028Y-64322019D01*
X231005625Y-64798558D01*
X230980228Y-65279419D01*
X230952864Y-65764169D01*
X230923565Y-66252375D01*
X230892359Y-66743603D01*
X230859278Y-67237421D01*
X230824349Y-67733396D01*
X230787604Y-68231094D01*
X230749071Y-68730083D01*
X230708781Y-69229930D01*
X230666764Y-69730201D01*
X230623049Y-70230464D01*
X230577665Y-70730286D01*
X230530644Y-71229233D01*
X230482013Y-71726873D01*
X230431804Y-72222772D01*
X230380046Y-72716498D01*
X230326768Y-73207617D01*
X230272001Y-73695697D01*
X230215774Y-74180305D01*
X230158117Y-74661006D01*
X230099060Y-75137370D01*
X230723269Y-42448641D02*
X230771555Y-42902397D01*
X230788576Y-43162308D01*
X230805941Y-43471696D01*
X230823580Y-43827650D01*
X230841422Y-44227259D01*
X230859397Y-44667610D01*
X230877434Y-45145794D01*
X230895462Y-45658898D01*
X230913410Y-46204011D01*
X230931208Y-46778223D01*
X230948785Y-47378621D01*
X230966071Y-48002294D01*
X230982994Y-48646331D01*
X230999485Y-49307822D01*
X231015471Y-49983853D01*
X231030884Y-50671514D01*
X231045651Y-51367894D01*
X231059703Y-52070082D01*
X231072968Y-52775166D01*
X231085376Y-53480234D01*
X231096856Y-54182376D01*
X231107337Y-54878680D01*
X231116750Y-55566235D01*
X231125022Y-56242129D01*
X231132084Y-56903452D01*
X231137865Y-57547291D01*
X231142294Y-58170736D01*
X231145300Y-58770876D01*
X231146813Y-59344798D01*
X231146762Y-59889592D01*
D10*
X230417760Y-40514122D02*
G75*
G03*
X230723269Y-42448641I19641616J2110523D01*
G01*
X230417762Y-40514122D02*
G75*
G03*
X229971670Y-37485454I-61173686J-7463077D01*
G01*
X229476923Y-34093694D02*
G75*
G03*
X229971671Y-37485454I73059153J8924995D01*
G01*
X229476919Y-34093694D02*
G75*
G03*
X228757497Y-29707347I-76717743J-10330605D01*
G01*
X227758589Y-24488553D02*
G75*
G03*
X228757498Y-29707347I927038111J174735854D01*
G01*
D11*
X223098845Y-9342164D02*
X223279069Y-9716765D01*
X223457825Y-10100099D01*
X223635040Y-10491928D01*
X223810639Y-10892016D01*
X223984550Y-11300124D01*
X224156700Y-11716017D01*
X224327015Y-12139458D01*
X224495423Y-12570209D01*
X224661850Y-13008034D01*
X224826223Y-13452696D01*
X224988470Y-13903957D01*
X225148516Y-14361582D01*
X225306289Y-14825333D01*
X225461715Y-15294973D01*
X225614722Y-15770266D01*
X225765236Y-16250974D01*
X225913184Y-16736861D01*
X226058493Y-17227689D01*
X226201090Y-17723222D01*
X226340902Y-18223223D01*
X226477855Y-18727455D01*
X226611876Y-19235682D01*
X226742893Y-19747665D01*
X226870832Y-20263169D01*
X226995620Y-20781956D01*
X227117183Y-21303790D01*
X227235449Y-21828433D01*
X227350345Y-22355650D01*
X227461797Y-22885202D01*
X227569732Y-23416853D01*
X227674077Y-23950366D01*
X227774760Y-24485505D01*
X210141248Y5712689D02*
X210680796Y5287432D01*
X211213504Y4857116D01*
X211739188Y4421953D01*
X212257663Y3982158D01*
X212768744Y3537946D01*
X213272247Y3089530D01*
X213767987Y2637126D01*
X214255780Y2180948D01*
X214735441Y1721210D01*
X215206786Y1258126D01*
X215669630Y791912D01*
X216123788Y322780D01*
X216569077Y-149052D01*
X217005311Y-623374D01*
X217432306Y-1099968D01*
X217849878Y-1578622D01*
X218257841Y-2059121D01*
X218656012Y-2541250D01*
X219044206Y-3024794D01*
X219422238Y-3509540D01*
X219789924Y-3995273D01*
X220147079Y-4481779D01*
X220493519Y-4968843D01*
X220829060Y-5456251D01*
X221153515Y-5943788D01*
X221466702Y-6431241D01*
X221768436Y-6918393D01*
X222058532Y-7405033D01*
X222336805Y-7890944D01*
X222603071Y-8375912D01*
X222857146Y-8859723D01*
X223098845Y-9342164D01*
X188532927Y14584664D02*
X189642849Y14272690D01*
X190714041Y13967345D01*
X191747570Y13668190D01*
X192744507Y13374785D01*
X193705919Y13086693D01*
X194632876Y12803474D01*
X195526446Y12524689D01*
X196387698Y12249901D01*
X197217701Y11978668D01*
X198017524Y11710554D01*
X198788235Y11445119D01*
X199530903Y11181924D01*
X200246598Y10920531D01*
X200936387Y10660500D01*
X201601340Y10401393D01*
X202242526Y10142771D01*
X202861012Y9884195D01*
X203457869Y9625226D01*
X204034164Y9365426D01*
X204590968Y9104356D01*
X205129347Y8841576D01*
X205650372Y8576648D01*
X206155111Y8309134D01*
X206644633Y8038594D01*
X207120007Y7764589D01*
X207582301Y7486681D01*
X208032584Y7204431D01*
X208471926Y6917400D01*
X208901394Y6625149D01*
X209322058Y6327239D01*
X209734986Y6023232D01*
X210141248Y5712689D01*
X176000506Y16504638D02*
X176488438Y16464761D01*
X176970557Y16423525D01*
X177446822Y16380936D01*
X177917194Y16337000D01*
X178381633Y16291723D01*
X178840098Y16245111D01*
X179292550Y16197170D01*
X179738950Y16147907D01*
X180179256Y16097327D01*
X180613430Y16045436D01*
X181041431Y15992241D01*
X181463220Y15937748D01*
X181878756Y15881963D01*
X182288000Y15824891D01*
X182690911Y15766540D01*
X183087451Y15706915D01*
X183477578Y15646022D01*
X183861254Y15583868D01*
X184238438Y15520458D01*
X184609090Y15455799D01*
X184973171Y15389896D01*
X185330640Y15322757D01*
X185681458Y15254386D01*
X186025584Y15184791D01*
X186362980Y15113976D01*
X186693604Y15041949D01*
X187017418Y14968716D01*
X187334381Y14894282D01*
X187644453Y14818654D01*
X187947595Y14741837D01*
X188243766Y14663838D01*
X188532927Y14584664D01*
X159551705Y16596371D02*
X159832531Y16616989D01*
X160155405Y16635942D01*
X160517626Y16653244D01*
X160916493Y16668911D01*
X161349308Y16682957D01*
X161813369Y16695397D01*
X162305976Y16706247D01*
X162824429Y16715521D01*
X163366028Y16723236D01*
X163928072Y16729404D01*
X164507862Y16734043D01*
X165102696Y16737166D01*
X165709876Y16738790D01*
X166326700Y16738928D01*
X166950468Y16737596D01*
X167578481Y16734809D01*
X168208038Y16730583D01*
X168836438Y16724931D01*
X169460982Y16717870D01*
X170078969Y16709414D01*
X170687699Y16699579D01*
X171284472Y16688378D01*
X171866587Y16675829D01*
X172431345Y16661945D01*
X172976045Y16646741D01*
X173497987Y16630233D01*
X173994471Y16612436D01*
X174462796Y16593364D01*
X174900262Y16573034D01*
X175304169Y16551459D01*
X175671817Y16528655D01*
X176000506Y16504638D01*
X158037371Y16621240D02*
X158296907Y16558827D01*
X158589884Y16551108D01*
X158896686Y16556973D01*
X159174403Y16569857D01*
X159474081Y16590134D01*
X159551705Y16596371D01*
X154569425Y19562168D02*
X154844639Y19427829D01*
X155130068Y19271621D01*
X155421854Y19096816D01*
X155716136Y18906687D01*
X156009055Y18704507D01*
X156296751Y18493549D01*
X156575365Y18277086D01*
X156841037Y18058391D01*
X157089908Y17840737D01*
X157318119Y17627397D01*
X157521809Y17421644D01*
X157697119Y17226751D01*
X157898429Y16961934D01*
X158014175Y16739962D01*
X158037371Y16621240D01*
X152606656Y21741439D02*
X152705540Y21506254D01*
X152845302Y21298131D01*
X153030439Y21056347D01*
X153248719Y20794485D01*
X153487910Y20526124D01*
X153735780Y20264845D01*
X153980099Y20024229D01*
X154208633Y19817857D01*
X154409152Y19659309D01*
X154569425Y19562168D01*
X151338978Y22815459D02*
X151627933Y22748198D01*
X151889195Y22577709D01*
X152107599Y22400068D01*
X152310371Y22206078D01*
X152475373Y22014497D01*
X152603630Y21772669D01*
X152606656Y21741439D01*
X151144540Y22302196D02*
X151183298Y22560958D01*
X151299919Y22783296D01*
X151338978Y22815459D01*
D10*
X150935652Y21780027D02*
G75*
G03*
X151144540Y22302196I-467976J490074D01*
G01*
D11*
X150726793Y20337942D02*
X150731056Y20604326D01*
X150743274Y20857933D01*
X150768429Y21147962D01*
X150803001Y21397231D01*
X150864039Y21655736D01*
X150935666Y21780012D01*
X148260224Y18054614D02*
X148642274Y18103555D01*
X148983564Y18155395D01*
X149286318Y18212192D01*
X149552759Y18276003D01*
X149889196Y18389374D01*
X150156432Y18530103D01*
X150361970Y18705136D01*
X150513314Y18921417D01*
X150617965Y19185893D01*
X150683426Y19505509D01*
X150717201Y19887210D01*
X150725819Y20179599D01*
X150726793Y20337942D01*
X144231970Y18536149D02*
X144450028Y18403724D01*
X144746123Y18235383D01*
X145019041Y18101719D01*
X145284551Y18000847D01*
X145558421Y17930884D01*
X145856419Y17889944D01*
X146194314Y17876141D01*
X146449529Y17881085D01*
X146734156Y17896695D01*
X147052867Y17922411D01*
X147410333Y17957675D01*
X147811228Y18001929D01*
X148260224Y18054614D01*
X140805293Y20206619D02*
X141096991Y20126004D01*
X141365760Y20043826D01*
X141621653Y19955182D01*
X141874724Y19855173D01*
X142135026Y19738896D01*
X142412614Y19601452D01*
X142717539Y19437938D01*
X142940976Y19312026D01*
X143184010Y19170897D01*
X143449621Y19013099D01*
X143740788Y18837180D01*
X144060488Y18641688D01*
X144231970Y18536149D01*
D10*
X137316369Y22913337D02*
G75*
G03*
X140805293Y20206619I4842107J2639464D01*
G01*
D11*
X136314509Y23033254D02*
X136353258Y23319616D01*
X136516365Y23526426D01*
X136767055Y23511510D01*
X136975608Y23367992D01*
X137147950Y23174920D01*
X137316374Y22913340D01*
X136105636Y22511070D02*
X136272872Y22721335D01*
X136313425Y22980060D01*
X136314509Y23033254D01*
X135896762Y19887822D02*
X135897699Y20182533D01*
X135900480Y20462666D01*
X135905055Y20727608D01*
X135915175Y21095199D01*
X135929058Y21425170D01*
X135946540Y21715454D01*
X135975162Y22037195D01*
X136018931Y22327535D01*
X136105636Y22511070D01*
X136105636Y17393665D02*
X135988597Y17643678D01*
X135957392Y17897069D01*
X135932479Y18234299D01*
X135918012Y18541171D01*
X135907231Y18893452D01*
X135902123Y19153164D01*
X135898699Y19432502D01*
X135896977Y19731243D01*
X135896762Y19887822D01*
X136314509Y16975918D02*
X136290019Y17225585D01*
X136105636Y17393665D01*
X136105636Y16558170D02*
X136294521Y16747113D01*
X136314509Y16975918D01*
X135896762Y16383971D02*
X136053594Y16580742D01*
X136105636Y16558170D01*
X133863139Y16599315D02*
X134115069Y16467601D01*
X134349649Y16351730D01*
X134669320Y16207592D01*
X134950806Y16099009D01*
X135194615Y16025925D01*
X135461971Y15983609D01*
X135741768Y16038010D01*
X135889196Y16279736D01*
X135896762Y16383971D01*
D10*
X133863139Y16599315D02*
G75*
G03*
X130682515Y18265487I-123339837J-231579570D01*
G01*
D11*
X128708659Y19380814D02*
X128928147Y19229069D01*
X129184117Y19076491D01*
X129441782Y18929743D01*
X129660568Y18808283D01*
X129897451Y18679198D01*
X130149013Y18544417D01*
X130411839Y18405870D01*
X130682515Y18265487D01*
D10*
X128708641Y19380791D02*
G75*
G03*
X128126662Y19586839I-588465J-737190D01*
G01*
D11*
X127750689Y19795712D02*
X127932087Y19617189D01*
X128126662Y19586839D01*
X127345269Y20004586D02*
X127602769Y19956735D01*
X127750689Y19795712D01*
X126831225Y20180344D02*
X127062883Y20044850D01*
X127324345Y20004815D01*
X127345269Y20004586D01*
X125095690Y20720539D02*
X125343851Y20663196D01*
X125660206Y20584857D01*
X125953434Y20506396D01*
X126216417Y20430031D01*
X126491769Y20340895D01*
X126725554Y20248915D01*
X126831225Y20180344D01*
D10*
X123155468Y21210786D02*
G75*
G03*
X125095690Y20720540I7046308J23802315D01*
G01*
D11*
X111313202Y21745273D02*
X111711639Y21740192D01*
X112126598Y21733534D01*
X112556245Y21725380D01*
X112998742Y21715814D01*
X113452256Y21704918D01*
X113914952Y21692775D01*
X114384993Y21679469D01*
X114860544Y21665081D01*
X115339772Y21649695D01*
X115820839Y21633393D01*
X116301912Y21616259D01*
X116781154Y21598375D01*
X117256732Y21579824D01*
X117726808Y21560688D01*
X118189549Y21541052D01*
X118643120Y21520997D01*
X119085683Y21500606D01*
X119515406Y21479962D01*
X119930452Y21459149D01*
X120328986Y21438248D01*
X120709174Y21417342D01*
X121069179Y21396516D01*
X121407167Y21375850D01*
X121721302Y21355429D01*
X122009750Y21335335D01*
X122270674Y21315650D01*
X122702614Y21277841D01*
X123002439Y21242666D01*
X123155468Y21210787D01*
X107877230Y22041104D02*
X108122989Y21934421D01*
X108381122Y21884828D01*
X108633915Y21852801D01*
X108939294Y21825042D01*
X109298923Y21801409D01*
X109569635Y21787875D01*
X109865691Y21776069D01*
X110187582Y21765948D01*
X110535802Y21757470D01*
X110910845Y21750592D01*
X111313202Y21745273D01*
D10*
X107877242Y22041119D02*
G75*
G03*
X107134858Y22302196I-749366J-944818D01*
G01*
D11*
X106654448Y22511070D02*
X106847892Y22343832D01*
X107110232Y22302469D01*
X107134858Y22302196D01*
X106236701Y22719944D02*
X106486235Y22678307D01*
X106654448Y22511070D01*
X106249894Y20969786D02*
X106106191Y21255797D01*
X105991928Y21521545D01*
X105907115Y21765311D01*
X105839867Y22053167D01*
X105829513Y22347532D01*
X105925271Y22594267D01*
X106186280Y22717906D01*
X106236701Y22719944D01*
X106670221Y20164544D02*
X106532183Y20383450D01*
X106426171Y20614350D01*
X106311919Y20850969D01*
X106249894Y20969786D01*
D10*
X106670222Y20164545D02*
G75*
G03*
X107072140Y19712160I11327154J9658756D01*
G01*
D11*
X107489943Y19008337D02*
X107339142Y19213986D01*
X107220803Y19457740D01*
X107088111Y19691469D01*
X107072139Y19712159D01*
X107907690Y18359737D02*
X107798832Y18611010D01*
X107652146Y18818434D01*
X107489943Y19008337D01*
D10*
X107907663Y18359737D02*
G75*
G03*
X108064346Y18089912I313713J1764D01*
G01*
D11*
X109056496Y16770294D02*
X108885465Y17022812D01*
X108719727Y17261136D01*
X108563353Y17479854D01*
X108387250Y17717434D01*
X108214820Y17936045D01*
X108064346Y18089911D01*
X115905900Y9641421D02*
X115679409Y9843202D01*
X115446207Y10054159D01*
X115207047Y10273508D01*
X114962678Y10500468D01*
X114713853Y10734256D01*
X114461324Y10974091D01*
X114205840Y11219190D01*
X113948154Y11468773D01*
X113689017Y11722055D01*
X113429180Y11978257D01*
X113169395Y12236595D01*
X112910413Y12496287D01*
X112652985Y12756552D01*
X112397863Y13016607D01*
X112145799Y13275671D01*
X111897542Y13532962D01*
X111653846Y13787697D01*
X111415460Y14039094D01*
X111183137Y14286372D01*
X110957628Y14528749D01*
X110739685Y14765442D01*
X110530058Y14995669D01*
X110329498Y15218649D01*
X110138758Y15433599D01*
X109958589Y15639737D01*
X109789742Y15836282D01*
X109489018Y16197463D01*
X109242599Y16510886D01*
X109056496Y16770294D01*
X116864147Y8022650D02*
X116962413Y8279144D01*
X116957742Y8533491D01*
X116814770Y8775016D01*
X116631350Y8976536D01*
X116440769Y9160360D01*
X116200290Y9379729D01*
X116010267Y9549069D01*
X115905900Y9641421D01*
X116333546Y7472166D02*
X116568708Y7598276D01*
X116744682Y7808907D01*
X116864147Y8022650D01*
D10*
X116333550Y7472115D02*
G75*
G03*
X116053764Y7146528I25726J-305114D01*
G01*
D11*
X115844890Y6949982D02*
X116051345Y7098601D01*
X116053764Y7146528D01*
X115635761Y6910091D02*
X115844890Y6949982D01*
X114345073Y5545260D02*
X114589000Y5656047D01*
X114792696Y5824355D01*
X115014771Y6039007D01*
X115232514Y6275985D01*
X115423213Y6511273D01*
X115564154Y6720854D01*
X115635761Y6910091D01*
X114263904Y5406783D02*
X114345073Y5545260D01*
X113600588Y4391135D02*
X113792188Y4601579D01*
X113959005Y4804791D01*
X114118989Y5027641D01*
X114249015Y5266045D01*
X114263904Y5406783D01*
D10*
X113600588Y4391135D02*
G75*
G03*
X111145233Y1503304I22803388J-21876134D01*
G01*
D11*
X109390441Y-256160D02*
X109628238Y-144405D01*
X109875098Y56060D01*
X110105866Y275860D01*
X110292699Y469706D01*
X110487285Y684355D01*
X110685990Y916163D01*
X110885179Y1161485D01*
X111081215Y1416676D01*
X111145232Y1503304D01*
D10*
X109390435Y-256204D02*
G75*
G03*
X109159303Y-412815I-29859J-204795D01*
G01*
D11*
X107667003Y-1091654D02*
X107917940Y-1060076D01*
X108216049Y-976459D01*
X108463871Y-883299D01*
X108699663Y-776038D01*
X108948902Y-635137D01*
X109147226Y-455007D01*
X109159303Y-412815D01*
X106236701Y-1766722D02*
X106390247Y-1562214D01*
X106606867Y-1422152D01*
X106878708Y-1290411D01*
X107114889Y-1200945D01*
X107407190Y-1121441D01*
X107667003Y-1091654D01*
X109295804Y-3608609D02*
X108970423Y-3492803D01*
X108657327Y-3373713D01*
X108357717Y-3252061D01*
X108072795Y-3128573D01*
X107803761Y-3003970D01*
X107551817Y-2878977D01*
X107318166Y-2754316D01*
X107004615Y-2569532D01*
X106738980Y-2389567D01*
X106525315Y-2216861D01*
X106328282Y-2002101D01*
X106236701Y-1766722D01*
X114519910Y-4015886D02*
X114203232Y-4015708D01*
X113901908Y-4015145D01*
X113615393Y-4014156D01*
X113343141Y-4012698D01*
X113084607Y-4010727D01*
X112606509Y-4005081D01*
X112176734Y-3996876D01*
X111790918Y-3985774D01*
X111444695Y-3971432D01*
X111133700Y-3953512D01*
X110853569Y-3931673D01*
X110599938Y-3905574D01*
X110259628Y-3857695D01*
X109954390Y-3798319D01*
X109669491Y-3726296D01*
X109390200Y-3640478D01*
X109295804Y-3608609D01*
X118560248Y-3835402D02*
X118314046Y-3897293D01*
X117973167Y-3928806D01*
X117634649Y-3950035D01*
X117373398Y-3962869D01*
X117086106Y-3974539D01*
X116774844Y-3984953D01*
X116441684Y-3994019D01*
X116088697Y-4001644D01*
X115717955Y-4007736D01*
X115331528Y-4012202D01*
X114931489Y-4014949D01*
X114519910Y-4015886D01*
X119447961Y-3531038D02*
X119184735Y-3575921D01*
X118917699Y-3641014D01*
X118667798Y-3734547D01*
X118560248Y-3835402D01*
D10*
X119447959Y-3531025D02*
G75*
G03*
X121213296Y-2980464I-1220183J7017926D01*
G01*
D11*
X122518757Y-2553770D02*
X122246813Y-2596012D01*
X122002785Y-2664958D01*
X121729653Y-2759640D01*
X121492849Y-2853939D01*
X121258841Y-2958592D01*
X121213296Y-2980464D01*
X122946595Y-2344897D02*
X122757535Y-2517971D01*
X122518757Y-2553770D01*
X123313018Y-2136023D02*
X123066975Y-2190451D01*
X122946595Y-2344897D01*
X127315597Y-172623D02*
X127065467Y-375880D01*
X126743278Y-579240D01*
X126479426Y-731686D01*
X126185677Y-893042D01*
X125870049Y-1059377D01*
X125540559Y-1226757D01*
X125205222Y-1391251D01*
X124872056Y-1548926D01*
X124549077Y-1695850D01*
X124244301Y-1828090D01*
X123965745Y-1941714D01*
X123721425Y-2032789D01*
X123436674Y-2118522D01*
X123313018Y-2136023D01*
D10*
X128019949Y161607D02*
G75*
G03*
X127315598Y-172624I63027J-1042106D01*
G01*
D11*
X128310846Y297675D02*
X128083174Y163163D01*
X128019950Y161588D01*
X128709925Y711412D02*
X128491914Y577843D01*
X128310954Y396043D01*
X128310846Y297675D01*
X130041484Y740506D02*
X129768356Y818509D01*
X129494659Y872242D01*
X129223589Y879382D01*
X128973020Y826012D01*
X128709925Y711412D01*
X129710438Y-3509282D02*
X129872170Y-3170729D01*
X130023561Y-2852839D01*
X130164667Y-2554872D01*
X130295545Y-2276089D01*
X130416253Y-2015753D01*
X130526849Y-1773123D01*
X130717935Y-1338029D01*
X130869262Y-964896D01*
X130981291Y-647815D01*
X131054483Y-380874D01*
X131092457Y-61547D01*
X131011455Y243894D01*
X130783389Y455164D01*
X130518046Y580260D01*
X130173606Y698929D01*
X130041484Y740506D01*
X129003931Y-5200400D02*
X129089527Y-4919856D01*
X129188034Y-4672032D01*
X129288417Y-4434503D01*
X129404841Y-4169581D01*
X129534409Y-3884203D01*
X129674223Y-3585306D01*
X129710438Y-3509282D01*
D10*
X128713928Y-6020319D02*
G75*
G03*
X129003931Y-5200400I-2728252J1426220D01*
G01*
X128713916Y-6020313D02*
G75*
G03*
X127650511Y-8506670I68714460J-30859486D01*
G01*
D11*
X124331692Y-15399501D02*
X124498284Y-15103315D01*
X124682082Y-14764754D01*
X124880565Y-14389052D01*
X125091213Y-13981444D01*
X125311506Y-13547163D01*
X125424482Y-13321656D01*
X125538924Y-13091444D01*
X125654517Y-12857180D01*
X125770946Y-12619520D01*
X125887896Y-12379118D01*
X126005052Y-12136627D01*
X126122099Y-11892702D01*
X126238722Y-11647998D01*
X126354607Y-11403168D01*
X126469437Y-11158867D01*
X126582898Y-10915750D01*
X126694674Y-10674470D01*
X126804452Y-10435681D01*
X126911916Y-10200039D01*
X127016750Y-9968197D01*
X127217271Y-9518531D01*
X127403495Y-9091917D01*
X127572901Y-8693590D01*
X127650511Y-8506670D01*
X122096888Y-19785848D02*
X122234310Y-19473266D01*
X122396629Y-19130568D01*
X122527462Y-18861531D01*
X122672909Y-18566872D01*
X122829986Y-18252448D01*
X122995709Y-17924116D01*
X123167093Y-17587734D01*
X123341153Y-17249158D01*
X123514907Y-16914248D01*
X123685368Y-16588859D01*
X123849554Y-16278850D01*
X124004478Y-15990078D01*
X124147159Y-15728401D01*
X124274610Y-15499676D01*
X124331692Y-15399501D01*
X121657130Y-23820349D02*
X121601370Y-23562101D01*
X121569084Y-23247765D01*
X121559093Y-22888162D01*
X121564235Y-22628623D01*
X121578413Y-22356982D01*
X121601275Y-22076445D01*
X121632473Y-21790219D01*
X121671658Y-21501510D01*
X121718479Y-21213526D01*
X121772588Y-20929472D01*
X121833635Y-20652556D01*
X121901270Y-20385983D01*
X121975143Y-20132960D01*
X122096888Y-19785848D01*
X121902226Y-26540302D02*
X121899388Y-26242195D01*
X121891158Y-25939412D01*
X121877961Y-25636658D01*
X121860219Y-25338640D01*
X121838358Y-25050065D01*
X121812801Y-24775638D01*
X121783972Y-24520067D01*
X121741178Y-24216770D01*
X121694326Y-23966517D01*
X121657130Y-23820349D01*
X120046014Y-31587210D02*
X120293828Y-31312563D01*
X120521201Y-31040274D01*
X120728749Y-30768671D01*
X120917085Y-30496085D01*
X121086823Y-30220845D01*
X121238578Y-29941280D01*
X121372965Y-29655721D01*
X121490598Y-29362496D01*
X121592090Y-29059936D01*
X121678057Y-28746369D01*
X121749113Y-28420127D01*
X121805872Y-28079537D01*
X121848948Y-27722930D01*
X121878956Y-27348635D01*
X121896511Y-26954983D01*
X121902226Y-26540302D01*
X116268097Y-37125660D02*
X116395819Y-36858899D01*
X116554027Y-36558049D01*
X116739285Y-36228147D01*
X116948156Y-35874229D01*
X117177206Y-35501332D01*
X117423000Y-35114491D01*
X117682101Y-34718743D01*
X117951075Y-34319125D01*
X118226485Y-33920673D01*
X118504897Y-33528423D01*
X118782875Y-33147412D01*
X119056983Y-32782676D01*
X119323787Y-32439251D01*
X119579850Y-32122175D01*
X119821737Y-31836482D01*
X120046014Y-31587210D01*
X115042508Y-40151030D02*
X115119475Y-39891649D01*
X115199111Y-39645508D01*
X115290970Y-39389016D01*
X115404610Y-39098585D01*
X115509881Y-38844297D01*
X115636811Y-38547697D01*
X115789431Y-38198832D01*
X115907441Y-37932305D01*
X116039855Y-37635177D01*
X116187867Y-37304500D01*
X116268097Y-37125660D01*
D10*
X114293291Y-42657515D02*
G75*
G03*
X115042508Y-40151030I-247463869J75334995D01*
G01*
D11*
X113755316Y-44718832D02*
X113797524Y-44467733D01*
X113862238Y-44194152D01*
X113931726Y-43924159D01*
X114014574Y-43617877D01*
X114084151Y-43369438D01*
X114159072Y-43108908D01*
X114238408Y-42839856D01*
X114293291Y-42657515D01*
X112483597Y-48819288D02*
X112602072Y-48491201D01*
X112719788Y-48158373D01*
X112835793Y-47823871D01*
X112949137Y-47490763D01*
X113058867Y-47162116D01*
X113164033Y-46840999D01*
X113263682Y-46530478D01*
X113356864Y-46233623D01*
X113442627Y-45953499D01*
X113520020Y-45693176D01*
X113618333Y-45346527D01*
X113692460Y-45061684D01*
X113748126Y-44795932D01*
X113755316Y-44718832D01*
X111821659Y-55920992D02*
X111695243Y-55643247D01*
X111591455Y-55340615D01*
X111510239Y-55013681D01*
X111451540Y-54663034D01*
X111415304Y-54289261D01*
X111401476Y-53892947D01*
X111410001Y-53474682D01*
X111440825Y-53035050D01*
X111493892Y-52574640D01*
X111569149Y-52094039D01*
X111615081Y-51846350D01*
X111666540Y-51593833D01*
X111723519Y-51336563D01*
X111786011Y-51074611D01*
X111854009Y-50808051D01*
X111927507Y-50536958D01*
X112006497Y-50261403D01*
X112090973Y-49981461D01*
X112180927Y-49697205D01*
X112276354Y-49408709D01*
X112377246Y-49116045D01*
X112483597Y-48819288D01*
X118453565Y-58099672D02*
X118163139Y-58185159D01*
X117877815Y-58260652D01*
X117597618Y-58326158D01*
X117322575Y-58381687D01*
X117052712Y-58427247D01*
X116788056Y-58462847D01*
X116528634Y-58488495D01*
X116274472Y-58504200D01*
X115782035Y-58505818D01*
X115310957Y-58467770D01*
X114861451Y-58390125D01*
X114433728Y-58272953D01*
X114028002Y-58116324D01*
X113644484Y-57920308D01*
X113283388Y-57684975D01*
X112944925Y-57410394D01*
X112629308Y-57096636D01*
X112336750Y-56743769D01*
X112067463Y-56351865D01*
X111821659Y-55920992D01*
X120221192Y-58000639D02*
X120013140Y-57845806D01*
X119735776Y-57785236D01*
X119428364Y-57825292D01*
X119146840Y-57894341D01*
X118884399Y-57968981D01*
X118570674Y-58063618D01*
X118453565Y-58099672D01*
X120294204Y-60051651D02*
X120342312Y-59769133D01*
X120383790Y-59518212D01*
X120433391Y-59195908D01*
X120467600Y-58931413D01*
X120488779Y-58654905D01*
X120475039Y-58405095D01*
X120378385Y-58168120D01*
X120221192Y-58000639D01*
X120208219Y-64335259D02*
X120087886Y-64092726D01*
X119967084Y-63801945D01*
X119892430Y-63506282D01*
X119867280Y-63253682D01*
X119868996Y-62953093D01*
X119897969Y-62585125D01*
X119932618Y-62292804D01*
X119979670Y-61956173D01*
X120039239Y-61569488D01*
X120111440Y-61127002D01*
X120196390Y-60622972D01*
X120243682Y-60346082D01*
X120294204Y-60051651D01*
X120126800Y-66593422D02*
X120288972Y-66347688D01*
X120418350Y-66131784D01*
X120540329Y-65876679D01*
X120612554Y-65584166D01*
X120596840Y-65286864D01*
X120521838Y-65021032D01*
X120392073Y-64710063D01*
X120259216Y-64435967D01*
X120208219Y-64335259D01*
X120544547Y-71112752D02*
X120346607Y-70685286D01*
X120172565Y-70287816D01*
X120022207Y-69918057D01*
X119895322Y-69573724D01*
X119791701Y-69252533D01*
X119711130Y-68952200D01*
X119653400Y-68670439D01*
X119618300Y-68404966D01*
X119605617Y-68153498D01*
X119628164Y-67797554D01*
X119699963Y-67460269D01*
X119820303Y-67133931D01*
X119988470Y-66810831D01*
X120126800Y-66593422D01*
X121483942Y-73490547D02*
X121426815Y-73234671D01*
X121323112Y-72930819D01*
X121208184Y-72629717D01*
X121105868Y-72376446D01*
X120991540Y-72104221D01*
X120866824Y-71817158D01*
X120733345Y-71519371D01*
X120592725Y-71214975D01*
X120544547Y-71112752D01*
X120792292Y-75032933D02*
X120931133Y-74794129D01*
X121060681Y-74555817D01*
X121178098Y-74324324D01*
X121303490Y-74054183D01*
X121399955Y-73816936D01*
X121475859Y-73563577D01*
X121483942Y-73490547D01*
X118804688Y-80985833D02*
X118820659Y-80541676D01*
X118842023Y-80134213D01*
X118870717Y-79757639D01*
X118908678Y-79406152D01*
X118957843Y-79073950D01*
X119020151Y-78755230D01*
X119097539Y-78444189D01*
X119191944Y-78135024D01*
X119305303Y-77821933D01*
X119439554Y-77499113D01*
X119596635Y-77160762D01*
X119778483Y-76801075D01*
X119987035Y-76414252D01*
X120224229Y-75994489D01*
X120354172Y-75770442D01*
X120492002Y-75535983D01*
X120637961Y-75290389D01*
X120792292Y-75032933D01*
X120667208Y-86773918D02*
X120396391Y-86498229D01*
X120149866Y-86222573D01*
X119926839Y-85944485D01*
X119726516Y-85661497D01*
X119548103Y-85371145D01*
X119390807Y-85070961D01*
X119253834Y-84758479D01*
X119136392Y-84431233D01*
X119037685Y-84086758D01*
X118956920Y-83722586D01*
X118893305Y-83336252D01*
X118846045Y-82925290D01*
X118814347Y-82487233D01*
X118797417Y-82019615D01*
X118794462Y-81519970D01*
X118797977Y-81257367D01*
X118804688Y-80985833D01*
X128272873Y-89314927D02*
X127922403Y-89313623D01*
X127583133Y-89308591D01*
X127254670Y-89299700D01*
X126936621Y-89286818D01*
X126628596Y-89269814D01*
X126330201Y-89248558D01*
X126041044Y-89222918D01*
X125760733Y-89192764D01*
X125488876Y-89157964D01*
X125225080Y-89118387D01*
X124968954Y-89073902D01*
X124720104Y-89024379D01*
X124242667Y-88909690D01*
X123789630Y-88773274D01*
X123357856Y-88614081D01*
X122944208Y-88431063D01*
X122545545Y-88223171D01*
X122158732Y-87989358D01*
X121780630Y-87728574D01*
X121408100Y-87439772D01*
X121038005Y-87121902D01*
X120852890Y-86951740D01*
X120667208Y-86773918D01*
X137045567Y-88076185D02*
X136574202Y-88180724D01*
X136128261Y-88279224D01*
X135706474Y-88371862D01*
X135307570Y-88458819D01*
X134930281Y-88540274D01*
X134573335Y-88616405D01*
X134235464Y-88687393D01*
X133915396Y-88753416D01*
X133611862Y-88814654D01*
X133323591Y-88871287D01*
X133049315Y-88923493D01*
X132787762Y-88971452D01*
X132537663Y-89015343D01*
X132066746Y-89091640D01*
X131626404Y-89153819D01*
X131206477Y-89203313D01*
X130796804Y-89241557D01*
X130387225Y-89269986D01*
X129967581Y-89290036D01*
X129527711Y-89303139D01*
X129057455Y-89310732D01*
X128546653Y-89314249D01*
X128272873Y-89314927D01*
X143519579Y-87809581D02*
X143292895Y-87660286D01*
X142980247Y-87474874D01*
X142674901Y-87336751D01*
X142348113Y-87247099D01*
X141971135Y-87207103D01*
X141677739Y-87208610D01*
X141340744Y-87233063D01*
X140951633Y-87280812D01*
X140501889Y-87352210D01*
X140251618Y-87396886D01*
X139982994Y-87447605D01*
X139694954Y-87504412D01*
X139386432Y-87567350D01*
X139056363Y-87636462D01*
X138703684Y-87711794D01*
X138327330Y-87793388D01*
X137926235Y-87881289D01*
X137499335Y-87975539D01*
X137045567Y-88076185D01*
X146085628Y-91669696D02*
X145918298Y-91270722D01*
X145756044Y-90899019D01*
X145597979Y-90553251D01*
X145443212Y-90232079D01*
X145290854Y-89934166D01*
X145140015Y-89658173D01*
X144989808Y-89402763D01*
X144839341Y-89166599D01*
X144687726Y-88948342D01*
X144534074Y-88746655D01*
X144297831Y-88472266D01*
X144052002Y-88227634D01*
X143793584Y-88008243D01*
X143519579Y-87809581D01*
X147273699Y-96395895D02*
X147240117Y-96142361D01*
X147197014Y-95866942D01*
X147145268Y-95573133D01*
X147085757Y-95264426D01*
X147019358Y-94944315D01*
X146946951Y-94616295D01*
X146869414Y-94283858D01*
X146787625Y-93950500D01*
X146702462Y-93619714D01*
X146614803Y-93294992D01*
X146525527Y-92979831D01*
X146435512Y-92677722D01*
X146345636Y-92392160D01*
X146256778Y-92126640D01*
X146169816Y-91884653D01*
X146085628Y-91669696D01*
X146199523Y-100051184D02*
X146407797Y-99631205D01*
X146590550Y-99259572D01*
X146749218Y-98931398D01*
X146885237Y-98641794D01*
X147000044Y-98385872D01*
X147135623Y-98054453D01*
X147231554Y-97771327D01*
X147292683Y-97519996D01*
X147328434Y-97205838D01*
X147322426Y-96879777D01*
X147297429Y-96603899D01*
X147273699Y-96395895D01*
D10*
X144982767Y-102499821D02*
X146199523Y-100051184D01*
X144878330Y-106677294D02*
X144982767Y-102499821D01*
D11*
X144474176Y-111306129D02*
X144588406Y-111022058D01*
X144651931Y-110714682D01*
X144693805Y-110412367D01*
X144731299Y-110042038D01*
X144754113Y-109754484D01*
X144775358Y-109432377D01*
X144795184Y-109073989D01*
X144813744Y-108677590D01*
X144831187Y-108241450D01*
X144847665Y-107763841D01*
X144855589Y-107508944D01*
X144863329Y-107243031D01*
X144870903Y-106965887D01*
X144878330Y-106677294D01*
X142935001Y-112872681D02*
X143126573Y-112698212D01*
X143316059Y-112521623D01*
X143500794Y-112345626D01*
X143735115Y-112116567D01*
X143949943Y-111899804D01*
X144138966Y-111701761D01*
X144329337Y-111490322D01*
X144474176Y-111306129D01*
D10*
X142935002Y-112872682D02*
G75*
G03*
X136955630Y-118805238I77630174J-84222317D01*
G01*
D11*
X132569551Y-123786811D02*
X132759367Y-123538861D01*
X132994102Y-123254052D01*
X133190266Y-123022009D01*
X133415484Y-122759279D01*
X133667456Y-122468474D01*
X133943881Y-122152208D01*
X134242457Y-121813095D01*
X134560884Y-121453746D01*
X134896862Y-121076776D01*
X135070713Y-120882500D01*
X135248089Y-120684798D01*
X135428702Y-120483998D01*
X135612264Y-120280425D01*
X135798489Y-120074407D01*
X135987087Y-119866271D01*
X136177773Y-119656342D01*
X136370257Y-119444947D01*
X136564253Y-119232414D01*
X136759473Y-119019068D01*
X136955630Y-118805238D01*
X125900505Y-131435752D02*
X126147162Y-131188764D01*
X126472035Y-130847278D01*
X126660085Y-130645364D01*
X126863227Y-130424943D01*
X127079973Y-130187722D01*
X127308837Y-129935405D01*
X127548331Y-129669700D01*
X127796967Y-129392312D01*
X128053258Y-129104948D01*
X128315717Y-128809312D01*
X128582856Y-128507111D01*
X128853188Y-128200051D01*
X129125226Y-127889838D01*
X129397482Y-127578177D01*
X129668469Y-127266775D01*
X129936699Y-126957338D01*
X130200685Y-126651571D01*
X130458940Y-126351180D01*
X130709977Y-126057872D01*
X130952307Y-125773352D01*
X131184444Y-125499327D01*
X131404900Y-125237501D01*
X131612187Y-124989581D01*
X131804819Y-124757274D01*
X131981309Y-124542284D01*
X132140167Y-124346318D01*
X132399044Y-124018281D01*
X132569551Y-123786811D01*
X124000799Y-133837799D02*
X124211739Y-133547432D01*
X124425381Y-133258543D01*
X124638436Y-132975287D01*
X124847619Y-132701821D01*
X125049641Y-132442302D01*
X125241215Y-132200884D01*
X125419055Y-131981726D01*
X125579873Y-131788983D01*
X125762137Y-131580266D01*
X125900505Y-131435752D01*
D10*
X121389878Y-137303180D02*
G75*
G03*
X124000799Y-133837799I-88773981J69601218D01*
G01*
X121389880Y-137303181D02*
G75*
G03*
X118769121Y-140799799I81842896J-64072718D01*
G01*
X116539263Y-143907008D02*
G75*
G03*
X118769121Y-140799799I-496626855J358753104D01*
G01*
D11*
X115651550Y-145275521D02*
X115764606Y-145051059D01*
X115918723Y-144805262D01*
X116085633Y-144553651D01*
X116239229Y-144329635D01*
X116406719Y-144091499D01*
X116539263Y-143907008D01*
D10*
X115429896Y-145693276D02*
G75*
G03*
X115651550Y-145275521I-795720J689877D01*
G01*
X115429889Y-145693269D02*
G75*
G03*
X113655731Y-148347591I72556987J-50417430D01*
G01*
X111094283Y-152210972D02*
G75*
G03*
X113655730Y-148347591I-261434147J176113377D01*
G01*
X111094289Y-152210975D02*
G75*
G03*
X104869025Y-162342127I111745587J-75642224D01*
G01*
X102736627Y-165849372D02*
G75*
G03*
X104869023Y-162342127I-62798828J40583396D01*
G01*
X102736632Y-165849375D02*
G75*
G03*
X100681079Y-169462906I34401244J-21960524D01*
G01*
D11*
X99342260Y-171791289D02*
X99507314Y-171573876D01*
X99651980Y-171350854D01*
X99817941Y-171076509D01*
X99953085Y-170842815D01*
X100094803Y-170589653D01*
X100240778Y-170321052D01*
X100388693Y-170041042D01*
X100536232Y-169753650D01*
X100681079Y-169462906D01*
X98926123Y-172514719D02*
X99009073Y-172260363D01*
X99144325Y-172037277D01*
X99299868Y-171838226D01*
X99342260Y-171791289D01*
D10*
X98731338Y-173154171D02*
G75*
G03*
X98926122Y-172514719I-1481162J800572D01*
G01*
X98731343Y-173154173D02*
G75*
G03*
X97505056Y-175710041I106622333J-52728726D01*
G01*
D11*
X95166397Y-180865085D02*
X95245580Y-180608127D01*
X95358384Y-180325572D01*
X95481732Y-180035978D01*
X95595849Y-179777953D01*
X95720784Y-179503499D01*
X95819973Y-179290763D01*
X94343286Y-182632700D02*
X94468203Y-182390626D01*
X94587355Y-182155515D01*
X94699318Y-181930425D01*
X94834958Y-181651180D01*
X94951909Y-181402437D01*
X95066673Y-181145450D01*
X95156867Y-180911731D01*
X95166397Y-180865085D01*
D10*
X94343283Y-182632699D02*
G75*
G03*
X93071048Y-185549161I22263893J-11447800D01*
G01*
D11*
X92453042Y-187093656D02*
X92570552Y-186871080D01*
X92683472Y-186605363D01*
X92791443Y-186330375D01*
X92883333Y-186084237D01*
X92977379Y-185821721D01*
X93071047Y-185549161D01*
X91305045Y-190108142D02*
X91405661Y-189821255D01*
X91505175Y-189540287D01*
X91602999Y-189266784D01*
X91698543Y-189002290D01*
X91791219Y-188748350D01*
X91880439Y-188506512D01*
X92006500Y-188169823D01*
X92121473Y-187869054D01*
X92223372Y-187609419D01*
X92335466Y-187336244D01*
X92443105Y-187108031D01*
X92453042Y-187093656D01*
X89717494Y-194053912D02*
X89859699Y-193767610D01*
X89985800Y-193491960D01*
X90125518Y-193171676D01*
X90224872Y-192936729D01*
X90328242Y-192687001D01*
X90434816Y-192424516D01*
X90543779Y-192151298D01*
X90654317Y-191869368D01*
X90765616Y-191580750D01*
X90876863Y-191287467D01*
X90987243Y-190991541D01*
X91095942Y-190694997D01*
X91202148Y-190399856D01*
X91305045Y-190108142D01*
X89109060Y-195681434D02*
X89157069Y-195402246D01*
X89230343Y-195163054D01*
X89331051Y-194889740D01*
X89428094Y-194655282D01*
X89537080Y-194414006D01*
X89655514Y-194172588D01*
X89717494Y-194053912D01*
X88511465Y-197688564D02*
X88602157Y-197452278D01*
X88688664Y-197215915D01*
X88795709Y-196906645D01*
X88891023Y-196611643D01*
X88972157Y-196339142D01*
X89036658Y-196097373D01*
X89090161Y-195850922D01*
X89109060Y-195681434D01*
D10*
X88511467Y-197688565D02*
G75*
G03*
X87350627Y-201088192I49050809J-18646934D01*
G01*
X86292469Y-204534608D02*
G75*
G03*
X87350627Y-201088192I-281734781J88387082D01*
G01*
X86292469Y-204534608D02*
G75*
G03*
X85347106Y-207876586I70077507J-21627891D01*
G01*
X84279804Y-211636312D02*
G75*
G03*
X85347105Y-207876586I-85826855J26395653D01*
G01*
X84279805Y-211636312D02*
G75*
G03*
X83436351Y-214456107I108921371J-34116487D01*
G01*
X82525376Y-217484775D02*
G75*
G03*
X83436351Y-214456107I-117949823J37128762D01*
G01*
D11*
X81298852Y-222212275D02*
X81358193Y-221869424D01*
X81426119Y-221517099D01*
X81503643Y-221151391D01*
X81561159Y-220898222D01*
X81623691Y-220636210D01*
X81691540Y-220364199D01*
X81765007Y-220081031D01*
X81844391Y-219785548D01*
X81929994Y-219476592D01*
X82022114Y-219153005D01*
X82121054Y-218813631D01*
X82227112Y-218457310D01*
X82340590Y-218082887D01*
X82461788Y-217689202D01*
X82525376Y-217484775D01*
D10*
X81054875Y-223413299D02*
G75*
G03*
X81298851Y-222212275I-17255251J4130524D01*
G01*
M02*
